<svg id="Capa_1" enable-background="new 0 0 512 512" height="512" viewBox="0 0 512 512" width="512" xmlns="http://www.w3.org/2000/svg"><g><path d="m510.886 270.32c-2.656-6.505-9.475-10.294-16.399-9.118l-134.696 22.884-28.835 125.488 174.6-121.264c5.771-4.007 7.986-11.485 5.33-17.99z"/><path d="m166.004 426.002c0 8.284 6.716 15 15 15h92.825l-107.825-232.155z"/><path d="m368.125 73.99c-4.753-3.558-11.156-3.977-16.332-1.071l-171.202 96.116 116.98 251.866 76.184-331.544c1.33-5.784-.878-11.81-5.63-15.367z"/><path d="m71.835 201.325c-4.052.876-7.562 3.389-9.695 6.944l-60.002 100.001c-3.286 5.476-2.744 12.431 1.349 17.333 2.909 3.483 7.157 5.386 11.517 5.386 1.775 0 3.569-.316 5.298-.969l115.702-43.714v-46.388l-52.472-36.27c-3.411-2.358-7.647-3.199-11.697-2.323z"/><path d="m136.004 381.986v-63.611l-32.003 12.091z"/></g></svg>
